# xmcd
#
# Track frame offsets: 
#        150
#        4672
#        15460
#        30377
#        41397
#        65272
#        82332
#        97042
#        103920
#        125207
#        139632
#        162455
#        176680
#        186702
#        203572
#        230715
#        249700
#        271675
#        288030
#
# Disc length: 4233 seconds
#
# Revision: 6
# Processed by: cddbd v1.4PL0 Copyright (c) Steve Scherf et al.
# Submitted via: ExactAudioCopy v0.95a3
#
DISCID=0d108713
DTITLE=Jools Holland - The Best Of
DYEAR=1900
DGENRE=
TTITLE0=Tranquil Passage
TTITLE1=Beatroute
TTITLE2=I'm Gone
TTITLE3=Skin The Cat
TTITLE4=Temple Bar
TTITLE5=When Did You Leave Heaven
TTITLE6=Start Up
TTITLE7=Etude No. 53
TTITLE8=Wang Dang Doodle
TTITLE9=Maybe I Need Her
TTITLE10=Heartbreaking World
TTITLE11=Well Alright
TTITLE12=Dangerzone
TTITLE13=Birdcage Walk
TTITLE14=Dr Jazz
TTITLE15=Waiting Game
TTITLE16=I Wish I Knew How It Felt To Be Free
TTITLE17=Pauly's Birthday Boogie
TTITLE18=Architectural Number
EXTD=
EXTT0=
EXTT1=
EXTT2=
EXTT3=
EXTT4=
EXTT5=
EXTT6=
EXTT7=
EXTT8=
EXTT9=
EXTT10=
EXTT11=
EXTT12=
EXTT13=
EXTT14=
EXTT15=
EXTT16=
EXTT17=
EXTT18=
PLAYORDER=
